<svg viewBox="0 0 1024 1024" fill="none" xmlns="http://www.w3.org/2000/svg">
  <defs>
    <linearGradient id="toolboxBody" x1="306" y1="414" x2="718" y2="714" gradientUnits="userSpaceOnUse">
      <stop stop-color="#84DAFF" />
      <stop offset="0.52" stop-color="#67A7FF" />
      <stop offset="1" stop-color="#7A72FF" />
    </linearGradient>
    <linearGradient id="cloudFill" x1="370" y1="340" x2="652" y2="490" gradientUnits="userSpaceOnUse">
      <stop stop-color="#F8FCFF" />
      <stop offset="1" stop-color="#C8D9FF" />
    </linearGradient>
    <filter id="shadow" x="-220" y="-220" width="1464" height="1464" filterUnits="userSpaceOnUse" color-interpolation-filters="sRGB">
      <feFlood flood-opacity="0" result="BackgroundImageFix" />
      <feColorMatrix in="SourceAlpha" type="matrix" values="0 0 0 0 0 0 0 0 0 0 0 0 0 0 0 0 0 0 127 0" result="hardAlpha" />
      <feOffset dy="28" />
      <feGaussianBlur stdDeviation="30" />
      <feComposite in2="hardAlpha" operator="out" />
      <feColorMatrix type="matrix" values="0 0 0 0 0.0196078 0 0 0 0 0.0509804 0 0 0 0 0.129412 0 0 0 0.42 0" />
      <feBlend mode="normal" in2="BackgroundImageFix" result="effect1_dropShadow_0_1" />
      <feBlend mode="normal" in="SourceGraphic" in2="effect1_dropShadow_0_1" result="shape" />
    </filter>
  </defs>

  <g filter="url(#shadow)">
    <g transform="translate(512 512) scale(2.07) translate(-512 -512)">
      <rect x="296" y="446" width="432" height="228" rx="52" fill="url(#toolboxBody)" />

      <rect x="358" y="404" width="308" height="82" rx="41" fill="url(#cloudFill)" />
      <circle cx="408" cy="402" r="56" fill="url(#cloudFill)" />
      <circle cx="486" cy="376" r="72" fill="url(#cloudFill)" />
      <circle cx="580" cy="384" r="64" fill="url(#cloudFill)" />
      <circle cx="640" cy="420" r="48" fill="url(#cloudFill)" />

      <path d="M296 540H728" stroke="#E8F7FF" stroke-opacity="0.34" stroke-width="4" />
      <rect x="454" y="556" width="116" height="54" rx="27" fill="#F8FCFF" />
      <rect x="492" y="574" width="40" height="14" rx="7" fill="#5570B7" fill-opacity="0.28" />
      <rect x="354" y="566" width="64" height="16" rx="8" fill="#F8FCFF" fill-opacity="0.86" />
      <rect x="606" y="566" width="64" height="16" rx="8" fill="#F8FCFF" fill-opacity="0.86" />
    </g>
  </g>
</svg>